<svg xmlns="http://www.w3.org/2000/svg" viewBox="0 0 32 32" role="img" aria-label="Olive Mail">
  <defs>
    <linearGradient id="bg" x1="0" y1="0" x2="0" y2="1">
      <stop offset="0" stop-color="#778f2f"/>
      <stop offset="1" stop-color="#5c6e24"/>
    </linearGradient>
  </defs>
  <rect width="32" height="32" rx="7" fill="url(#bg)"/>
  <svg x="3.5" y="3.5" width="25" height="25" viewBox="332 297 774 840" preserveAspectRatio="xMidYMid meet">
    <path fill="#f3eee3" transform="translate(0 1408) scale(0.1 -0.1)" d="M7090 11100 c-393 -37 -678 -95 -1021 -209 -516 -172 -926 -406 -1345 -767 -741 -639 -1234 -1583 -1368 -2619 -45 -346 -39 -849 15 -1200 47 -309 154 -706 267 -985 276 -686 736 -1306 1285 -1733 545 -425 1203 -718 1852 -826 237 -40 332 -46 670 -46 301 1 348 3 538 28 555 74 978 199 1442 427 411 202 756 450 1055 756 119 122 320 370 320 395 0 20 -20 4 -145 -112 -361 -337 -733 -573 -1185 -752 -842 -334 -1869 -425 -2715 -242 -480 104 -971 327 -1357 618 -596 447 -1059 1098 -1294 1817 -165 504 -241 1098 -204 1605 60 818 320 1533 778 2144 587 782 1368 1214 2392 1323 176 19 624 16 805 -6 275 -31 476 -74 709 -151 753 -247 1331 -744 1683 -1450 404 -808 460 -1735 158 -2641 -185 -557 -512 -1015 -883 -1238 -90 -54 -231 -113 -336 -140 -268 -70 -529 -50 -751 58 -213 102 -349 258 -416 476 -32 102 -32 277 0 394 28 106 103 259 184 379 65 96 104 144 341 432 133 160 263 348 360 517 267 467 405 1041 367 1526 -12 149 -30 274 -41 286 -11 10 -295 -75 -412 -124 -459 -189 -817 -527 -1041 -982 -262 -532 -305 -1150 -122 -1729 61 -192 82 -277 95 -379 19 -162 14 -170 -67 -85 -145 154 -249 413 -282 700 -5 50 -13 209 -16 355 -12 499 -64 762 -214 1075 -174 364 -453 684 -783 899 -166 108 -545 273 -569 249 -15 -15 -47 -163 -64 -291 -19 -157 -19 -436 0 -589 33 -259 99 -489 204 -708 174 -364 423 -658 845 -1000 395 -320 559 -475 699 -660 63 -84 177 -289 166 -300 -3 -2 -70 27 -148 65 -382 187 -649 259 -991 267 -170 5 -212 2 -325 -17 -234 -40 -430 -119 -607 -247 -108 -78 -290 -267 -367 -383 l-63 -94 29 -24 c118 -96 384 -236 564 -296 184 -61 309 -80 509 -80 291 0 499 51 763 186 125 64 228 138 368 263 61 55 123 107 137 115 40 21 148 19 201 -4 36 -17 55 -39 124 -140 96 -142 229 -284 333 -356 101 -70 243 -136 361 -167 87 -23 118 -26 273 -27 129 -1 197 4 261 17 346 70 703 275 987 566 208 213 372 448 528 756 190 376 296 688 369 1090 153 835 21 1635 -385 2340 -551 958 -1443 1515 -2660 1661 -157 18 -711 28 -860 14z"/>
  </svg>
</svg>
